<svg xmlns="http://www.w3.org/2000/svg" width="1920" height="1080" viewBox="0 0 1920 1080"><defs><symbol id="mark" viewBox="0 0 1186 1706"><path d="M5808 17050 c-507 -25 -1036 -116 -1548 -267 -941 -276 -1845 -826
-2556 -1556 -280 -287 -482 -536 -699 -862 -171 -257 -265 -420 -391 -680
-286 -589 -471 -1197 -558 -1835 -50 -369 -69 -880 -47 -1245 28 -456 126
-963 272 -1412 224 -686 579 -1333 1028 -1873 434 -523 883 -932 1401 -1275
252 -168 633 -376 930 -508 226 -101 687 -267 740 -267 9 0 37 21 61 48 24 26
158 169 299 317 140 149 372 396 515 550 143 154 298 321 346 370 47 50 119
126 160 170 41 44 124 132 184 195 61 63 214 225 340 360 127 135 277 295 335
355 127 133 220 234 220 239 0 2 -111 6 -247 9 -390 9 -649 48 -996 148 -335
97 -604 213 -890 386 -525 315 -926 739 -1213 1279 -138 261 -236 550 -291
862 -26 148 -28 174 -27 447 0 382 21 539 115 852 73 247 127 373 258 606 118
210 247 380 441 581 151 156 283 266 460 384 403 269 862 434 1370 493 173 21
529 15 700 -10 455 -68 851 -237 1190 -507 129 -103 362 -343 457 -471 367
-494 569 -1038 613 -1653 6 -89 10 -704 10 -1591 l0 -1445 -311 -335 c-172
-184 -481 -514 -688 -734 -572 -607 -1224 -1304 -1535 -1639 -285 -308 -759
-816 -877 -941 -130 -137 -789 -846 -1084 -1165 -165 -179 -376 -408 -471
-510 -94 -102 -287 -311 -429 -465 -142 -154 -297 -320 -344 -370 -97 -101
-236 -252 -551 -595 -118 -129 -298 -325 -400 -435 -290 -316 -527 -576 -710
-780 -36 -40 -104 -115 -153 -168 -48 -52 -87 -97 -87 -101 0 -3 962 -6 2138
-6 l2139 0 120 122 c113 116 411 428 643 674 58 61 245 257 415 435 364 380
965 1012 1219 1283 313 333 705 747 816 861 125 130 712 749 989 1043 107 114
323 342 480 507 250 261 388 408 646 685 33 35 99 105 146 155 47 49 166 175
265 280 98 104 233 246 299 315 66 69 182 192 258 274 l138 149 -4 2481 c-4
2740 0 2578 -68 2986 -108 655 -259 1126 -535 1680 -210 421 -428 755 -723
1110 -121 146 -480 506 -635 638 -526 449 -1133 800 -1771 1026 -464 165 -843
255 -1300 310 -301 37 -715 51 -1017 36z" transform="translate(0,1706) scale(0.1,-0.1)"/></symbol><linearGradient id="wgrad" x1="0" y1="0" x2="1" y2="0"><stop offset="0" stop-color="#67e8f9"/><stop offset="0.35" stop-color="#a78bfa"/><stop offset="0.7" stop-color="#f0abfc"/><stop offset="1" stop-color="#fcd34d"/></linearGradient><filter id="grain" x="0" y="0" width="100%" height="100%"><feTurbulence type="fractalNoise" baseFrequency="0.9" numOctaves="2" stitchTiles="stitch"/><feColorMatrix type="saturate" values="0"/></filter><radialGradient id="base" cx="0.5" cy="0.46" r="0.75"><stop offset="0" stop-color="#0e1330"/><stop offset=".5" stop-color="#080b1c"/><stop offset="1" stop-color="#04050c"/></radialGradient><radialGradient id="halo" cx="0.5" cy="0.5" r="0.5"><stop offset="0" stop-color="#a78bfa" stop-opacity=".42"/><stop offset=".45" stop-color="#22d3ee" stop-opacity=".14"/><stop offset="1" stop-color="#000" stop-opacity="0"/></radialGradient><linearGradient id="ring" x1="0" y1="0" x2="1" y2="1"><stop offset="0" stop-color="#67e8f9"/><stop offset=".5" stop-color="#a78bfa"/><stop offset="1" stop-color="#fcd34d"/></linearGradient><linearGradient id="mk" x1="0" y1="0" x2="1" y2="1"><stop offset="0" stop-color="#cfe0ff"/><stop offset="1" stop-color="#8fa6e0"/></linearGradient></defs><rect width="1920" height="1080" fill="url(#base)"/><ellipse cx="960" cy="500" rx="760" ry="760" fill="url(#halo)"/><g fill="none"><circle cx="960" cy="500" r="150" stroke="url(#ring)" stroke-width="1.1" stroke-opacity="0.200"/><circle cx="960" cy="500" r="196" stroke="url(#ring)" stroke-width="1.1" stroke-opacity="0.184"/><circle cx="960" cy="500" r="242" stroke="url(#ring)" stroke-width="1.1" stroke-opacity="0.168"/><circle cx="960" cy="500" r="288" stroke="url(#ring)" stroke-width="1.1" stroke-opacity="0.152"/><circle cx="960" cy="500" r="334" stroke="url(#ring)" stroke-width="1.1" stroke-opacity="0.136"/><circle cx="960" cy="500" r="380" stroke="url(#ring)" stroke-width="1.1" stroke-opacity="0.120"/><circle cx="960" cy="500" r="426" stroke="url(#ring)" stroke-width="1.1" stroke-opacity="0.104"/><circle cx="960" cy="500" r="472" stroke="url(#ring)" stroke-width="1.1" stroke-opacity="0.088"/><circle cx="960" cy="500" r="518" stroke="url(#ring)" stroke-width="1.1" stroke-opacity="0.072"/><circle cx="960" cy="500" r="564" stroke="url(#ring)" stroke-width="1.1" stroke-opacity="0.056"/><circle cx="960" cy="500" r="610" stroke="url(#ring)" stroke-width="1.1" stroke-opacity="0.040"/></g><use href="#mark" x="820" y="250" width="300" height="432" fill="url(#mk)" fill-opacity="0.92"/><use href="#mark" x="820" y="250" width="300" height="432" fill="url(#wgrad)" fill-opacity="0.22"/><rect width="1920" height="1080" filter="url(#grain)" opacity="0.05"/></svg>